<svg xmlns="http://www.w3.org/2000/svg" viewBox="0 0 500 500"><g id="freepik--Desk--inject-348"><g id="freepik--layer-9--inject-348"><polygon points="307.93 293.51 307.93 413.02 311.19 413.02 314.09 299.62 317.93 299.62 317.93 293.51 307.93 293.51" style="fill:#263238"></polygon><polygon points="310.82 413.02 313.93 413.02 317.93 293.52 313.82 293.52 310.82 413.02" style="fill:#263238"></polygon><g style="opacity:0.30000000000000004"><polygon points="311.42 413.02 313.93 413.02 317.65 299.76 314.14 299.76 311.42 413.02" style="fill:#fff"></polygon></g><polygon points="307.93 293.51 307.93 413.02 311.19 413.02 314.09 299.62 317.93 299.62 317.93 293.51 307.93 293.51" style="fill:#fff;opacity:0.5"></polygon><polygon points="112.16 413.02 115.27 413.02 119.27 293.68 115.16 293.68 112.16 413.02" style="fill:#263238"></polygon><polygon points="112.16 413.02 115.27 413.02 119.27 293.68 115.16 293.68 112.16 413.02" style="fill:#fff;opacity:0.30000000000000004"></polygon><polygon points="162.27 293.68 162.27 413.02 158.98 413.02 155.11 299.47 115.42 299.47 112.52 413.02 109.27 413.02 109.27 293.68 162.27 293.68" style="fill:#263238"></polygon><polygon points="162.27 293.68 162.27 413.02 158.98 413.02 155.11 299.47 115.42 299.47 112.52 413.02 109.27 413.02 109.27 293.68 162.27 293.68" style="fill:#fff;opacity:0.5"></polygon><polygon points="162.27 413.02 165.37 413.02 166.37 293.68 162.27 293.68 162.27 413.02" style="fill:#263238"></polygon><polygon points="162.27 413.02 165.37 413.02 166.37 293.68 162.27 293.68 162.27 413.02" style="fill:#fff;opacity:0.30000000000000004"></polygon><polygon points="317.93 293.68 317.93 299.48 353.77 299.48 357.64 413.02 360.93 413.02 360.93 293.68 317.93 293.68" style="fill:#263238"></polygon><polygon points="317.93 293.68 317.93 299.48 353.77 299.48 357.64 413.02 360.93 413.02 360.93 293.68 317.93 293.68" style="fill:#fff;opacity:0.5"></polygon><polygon points="317.93 293.68 317.93 299.48 353.77 299.48 357.64 413.02 360.93 413.02 360.93 293.68 317.93 293.68" style="fill:none;opacity:0.30000000000000004"></polygon><polygon points="360.93 413.02 364.04 413.02 365.04 293.68 360.93 293.68 360.93 413.02" style="fill:#263238"></polygon><g style="opacity:0.30000000000000004"><polygon points="360.93 413.02 364.04 413.02 365.04 293.68 360.93 293.68 360.93 413.02" style="fill:#fff"></polygon></g><rect x="164.83" y="285.98" width="205.65" height="7.67" transform="translate(535.31 579.62) rotate(180)" style="fill:#263238"></rect><rect x="164.83" y="285.98" width="205.65" height="7.67" transform="translate(535.31 579.62) rotate(180)" style="fill:#fff;opacity:0.8"></rect><rect x="103.83" y="285.98" width="65.78" height="7.67" transform="translate(273.44 579.62) rotate(180)" style="fill:#263238"></rect><rect x="103.83" y="285.98" width="65.78" height="7.67" transform="translate(273.44 579.62) rotate(180)" style="fill:#fff;opacity:0.6000000000000001"></rect><path d="M149.58,283.86v1.06a1,1,0,0,0,1,1h38a.92.92,0,0,0,.92-.91v-1a.92.92,0,0,0-.92-.92h-9.45a1.73,1.73,0,0,1-1.71-2l3.32-19.16h-21.6l-9.25,20.46A3.81,3.81,0,0,0,149.58,283.86Z" style="fill:#263238"></path><path d="M189.51,284v1a.91.91,0,0,1-.91.91h-38a1,1,0,0,1-1-1v-1.06a4,4,0,0,1,.1-.84,4.3,4.3,0,0,1,.23-.69l9.25-20.46h21.6L177.43,281a1.32,1.32,0,0,0,0,.34,1.72,1.72,0,0,0,1.37,1.65,1.42,1.42,0,0,0,.36,0h9.46A.91.91,0,0,1,189.51,284Z" style="fill:#fff;opacity:0.2"></path><path d="M148.68,282.33l9.25-20.46h1.22l-9.25,20.46a3.81,3.81,0,0,0-.32,1.53v1.06a1,1,0,0,0,1,1h-1.22a1,1,0,0,1-1-1v-1.06A3.82,3.82,0,0,1,148.68,282.33Z" style="fill:#263238"></path><polygon points="159.15 261.87 180.75 261.87 179.9 266.76 156.94 266.76 159.15 261.87" style="opacity:0.30000000000000004"></polygon><path d="M217,264H124.85a3.37,3.37,0,0,1-3.37-3.37V194.06a3.37,3.37,0,0,1,3.37-3.37H217a3.37,3.37,0,0,1,3.37,3.37v66.59A3.37,3.37,0,0,1,217,264Z" style="fill:#263238"></path><g style="opacity:0.2"><path d="M217,264H124.85a3.37,3.37,0,0,1-3.37-3.37V194.06a3.37,3.37,0,0,1,3.37-3.37H217a3.37,3.37,0,0,1,3.37,3.37v66.59A3.37,3.37,0,0,1,217,264Z" style="fill:#fff"></path></g><rect x="123.08" y="192.73" width="95.68" height="58.69" rx="1.83" style="fill:#407BFF"></rect><rect x="123.08" y="192.73" width="95.68" height="58.69" rx="1.83" style="fill:#fff;opacity:0.6000000000000001"></rect><path d="M122.81,190.69h2a3.37,3.37,0,0,0-3.37,3.37v66.59a3.37,3.37,0,0,0,3.37,3.37h-2a3.37,3.37,0,0,1-3.37-3.37V194.06A3.37,3.37,0,0,1,122.81,190.69Z" style="fill:#407BFF"></path><path d="M122.81,190.69h2a3.37,3.37,0,0,0-3.37,3.37v66.59a3.37,3.37,0,0,0,3.37,3.37h-2a3.37,3.37,0,0,1-3.37-3.37V194.06A3.37,3.37,0,0,1,122.81,190.69Z" style="fill:#fff;opacity:0.30000000000000004"></path><g style="opacity:0.2"><polygon points="162.85 192.73 159.31 192.73 141.7 251.41 145.24 251.41 162.85 192.73" style="fill:#fff"></polygon><polygon points="138.12 251.41 155.73 192.73 142.43 192.73 124.82 251.41 138.12 251.41" style="fill:#fff"></polygon></g><path d="M156.15,284v1a1,1,0,0,0,.95,1h31.5a.91.91,0,0,0,.91-.91v-1a.92.92,0,0,0-.91-.92h-9.46a1.47,1.47,0,0,1-.36,0H157.1A1,1,0,0,0,156.15,284Z" style="fill:#fff;opacity:0.2"></path><path d="M149.67,283h29.11a1.71,1.71,0,0,1-1.37-1.65h-27Z" style="opacity:0.2"></path><path d="M221.78,283.6h2.76a.5.5,0,0,0,.52-.48v-2.66a.5.5,0,0,0-.52-.48h-2a.52.52,0,0,0-.51.36l-.77,2.65A.49.49,0,0,0,221.78,283.6Z" style="fill:#263238"></path><path d="M218,283.6h2.75a.51.51,0,0,0,.53-.48v-2.66a.51.51,0,0,0-.53-.48h-2a.52.52,0,0,0-.51.36l-.78,2.65A.49.49,0,0,0,218,283.6Z" style="fill:#263238"></path><path d="M214.17,283.6h2.76a.5.5,0,0,0,.52-.48v-2.66a.5.5,0,0,0-.52-.48h-2a.52.52,0,0,0-.51.36l-.77,2.65A.49.49,0,0,0,214.17,283.6Z" style="fill:#263238"></path><path d="M210.37,283.6h2.75a.51.51,0,0,0,.53-.48v-2.66a.51.51,0,0,0-.53-.48h-2a.52.52,0,0,0-.51.36l-.78,2.65A.49.49,0,0,0,210.37,283.6Z" style="fill:#263238"></path><path d="M206.56,283.6h2.76a.5.5,0,0,0,.52-.48v-2.66a.5.5,0,0,0-.52-.48h-2a.52.52,0,0,0-.51.36l-.77,2.65A.49.49,0,0,0,206.56,283.6Z" style="fill:#263238"></path><path d="M202.76,283.6h2.75a.51.51,0,0,0,.53-.48v-2.66a.51.51,0,0,0-.53-.48h-2a.52.52,0,0,0-.51.36l-.78,2.65A.49.49,0,0,0,202.76,283.6Z" style="fill:#263238"></path><path d="M199,283.6h2.76a.5.5,0,0,0,.52-.48v-2.66a.5.5,0,0,0-.52-.48h-2a.52.52,0,0,0-.51.36l-.77,2.65A.49.49,0,0,0,199,283.6Z" style="fill:#263238"></path><path d="M195.15,283.6h2.75a.51.51,0,0,0,.53-.48v-2.66a.51.51,0,0,0-.53-.48h-2a.52.52,0,0,0-.51.36l-.78,2.65A.49.49,0,0,0,195.15,283.6Z" style="fill:#263238"></path><path d="M191.34,283.6h2.76a.5.5,0,0,0,.52-.48v-2.66a.5.5,0,0,0-.52-.48h-2a.52.52,0,0,0-.51.36l-.77,2.65A.49.49,0,0,0,191.34,283.6Z" style="fill:#263238"></path><path d="M187.54,283.6h2.75a.51.51,0,0,0,.53-.48v-2.66a.51.51,0,0,0-.53-.48h-2a.52.52,0,0,0-.5.36L187,283A.49.49,0,0,0,187.54,283.6Z" style="fill:#263238"></path><path d="M183.73,283.6h2.76a.5.5,0,0,0,.52-.48v-2.66a.5.5,0,0,0-.52-.48h-2a.52.52,0,0,0-.51.36l-.77,2.65A.49.49,0,0,0,183.73,283.6Z" style="fill:#263238"></path><path d="M179.93,283.6h2.75a.51.51,0,0,0,.53-.48v-2.66a.51.51,0,0,0-.53-.48h-2a.52.52,0,0,0-.5.36l-.78,2.65A.49.49,0,0,0,179.93,283.6Z" style="fill:#263238"></path><path d="M176.12,283.6h2.76a.5.5,0,0,0,.52-.48v-2.66a.5.5,0,0,0-.52-.48h-2a.52.52,0,0,0-.51.36l-.77,2.65A.49.49,0,0,0,176.12,283.6Z" style="fill:#263238"></path><path d="M172.32,283.6h2.75a.51.51,0,0,0,.53-.48v-2.66a.51.51,0,0,0-.53-.48h-2a.52.52,0,0,0-.5.36l-.78,2.65A.49.49,0,0,0,172.32,283.6Z" style="fill:#263238"></path><path d="M168.51,283.6h2.76a.5.5,0,0,0,.52-.48v-2.66a.5.5,0,0,0-.52-.48h-2a.52.52,0,0,0-.51.36L168,283A.49.49,0,0,0,168.51,283.6Z" style="fill:#263238"></path><path d="M165.74,283.88A2.2,2.2,0,0,0,168,286h57a2.2,2.2,0,0,0,2.29-2.09,2,2,0,0,0-.67-1.48,2.42,2.42,0,0,0-1.57-.61H168a2.59,2.59,0,0,0-.63.08A2.14,2.14,0,0,0,165.74,283.88Z" style="fill:#263238"></path><path d="M165.74,283.88A2.2,2.2,0,0,0,168,286h57a2.2,2.2,0,0,0,2.29-2.09,2,2,0,0,0-.67-1.48,2.42,2.42,0,0,0-1.57-.61H168a2.59,2.59,0,0,0-.63.08A2.14,2.14,0,0,0,165.74,283.88Z" style="fill:#fff;opacity:0.2"></path><path d="M165.74,283.88A2.2,2.2,0,0,0,168,286h19.29a2.11,2.11,0,0,0,1.59-2,2.22,2.22,0,0,0,0-.37,2.06,2.06,0,0,0-.64-1.11,3.3,3.3,0,0,0-.49-.34l-.27-.12a2.37,2.37,0,0,0-.88-.16H167.4A2.14,2.14,0,0,0,165.74,283.88Z" style="fill:#263238"></path></g></g><g id="freepik--character-1--inject-348"><polygon points="184.08 405.23 176.72 403.55 180.35 387.19 190.16 390.58 184.08 405.23" style="fill:#ffc3bd"></polygon><polygon points="192.43 384.9 181.7 380.67 179.36 391.66 188.45 394.52 192.43 384.9" style="isolation:isolate;opacity:0.2"></polygon><polygon points="214.6 405.23 207.13 404.18 210.2 384.85 220.26 387.4 214.6 405.23" style="fill:#ffc3bd"></polygon><polygon points="222.03 381.54 210.98 378.24 209.26 390.57 218.75 392.25 222.03 381.54" style="isolation:isolate;opacity:0.2"></polygon><path d="M259.11,295.28s-42.55,4.94-44.46,22.53c-1.9,22.93-.79,16.44-6,69.43l12.61.7s12.83-43.34,11.1-60.56c14.13,0,46.48,1.24,51.18-11.51a56.76,56.76,0,0,0,3.35-20.2Z" style="fill:#407BFF"></path><g style="isolation:isolate;opacity:0.2"><path d="M259.11,295.28s-42.55,4.94-44.46,22.53c-1.9,22.93-.79,16.44-6,69.43l12.61.7s12.83-43.34,11.1-60.56c14.13,0,46.48,1.24,51.18-11.51a56.76,56.76,0,0,0,3.35-20.2Z"></path></g><polygon points="221.56 390.08 207.13 387.61 207.63 380.67 224.13 384.06 221.56 390.08" style="fill:#263238"></polygon><path d="M207.32,400.47l8.42,1.66a.64.64,0,0,1,.48.71l-.7,8a1.4,1.4,0,0,1-1.54,1.31c-2.92-.63-4.3-1.11-8-1.84-2.28-.45-7.49-1.55-10.66-1.9s-2.79-4.06-1.42-4.25c6.16-.82,9.66-1.81,12-3.36A1.85,1.85,0,0,1,207.32,400.47Z" style="fill:#263238"></path><path d="M203.54,401.91a9.54,9.54,0,0,0,2,.06.15.15,0,0,0,.15-.11.21.21,0,0,0,0-.19c-.21-.21-2.1-2-3.07-1.8a.62.62,0,0,0-.49.42,1,1,0,0,0,.06,1A2,2,0,0,0,203.54,401.91Zm1.61-.27c-1.39,0-2.37-.16-2.66-.57a.61.61,0,0,1,0-.64.32.32,0,0,1,.23-.22C203.23,400.1,204.37,400.94,205.15,401.64Z" style="fill:#407BFF"></path><path d="M205.55,402h.08a.2.2,0,0,0,.12-.13c0-.09.55-2.22-.09-3.07a.85.85,0,0,0-.7-.37.67.67,0,0,0-.72.42c-.31.79.55,2.54,1.22,3.11A.11.11,0,0,0,205.55,402Zm-.52-3.21a.51.51,0,0,1,.35.22,4,4,0,0,1,.09,2.46,3.56,3.56,0,0,1-.9-2.49c0-.1.11-.21.37-.2Z" style="fill:#407BFF"></path><path d="M244.19,295.28c-.33,0-56.2,5.75-56.27,24.7-2.15,14-9.07,67.26-9.07,67.26l11.81,3.86s18.46-37.33,18.17-61.76c15.37-4.41,55.13,3,59.83-9.74,3.85-10.42,1.77-24.32,1.77-24.32Z" style="fill:#407BFF"></path><polygon points="191.35 392.47 177.37 387.88 178.56 381.82 194.17 387.14 191.35 392.47" style="fill:#263238"></polygon><path d="M177.21,399.55l8.44,1.76a.69.69,0,0,1,.47.77l-.66,8.76c-.12,1-.8,1.6-1.53,1.45h0c-2.92-.67-4.3-1.19-8-2-2.28-.47-8.49-2-11.62-2.79s-2.43-4.81-1-4.83c6.19-.09,10.2-1.11,12.58-2.83A1.68,1.68,0,0,1,177.21,399.55Z" style="fill:#263238"></path><path d="M173.74,401.44a9.83,9.83,0,0,0,1.65-1.13.2.2,0,0,0,.06-.19.18.18,0,0,0-.15-.12c-.29-.05-2.87-.38-3.54.36a.69.69,0,0,0-.14.63,1,1,0,0,0,.64.78A2.1,2.1,0,0,0,173.74,401.44Zm1.13-1.17c-1.09.86-2,1.27-2.47,1.12a.64.64,0,0,1-.39-.52.32.32,0,0,1,.07-.31C172.43,400.21,173.83,400.18,174.87,400.27Z" style="fill:#407BFF"></path><path d="M175.39,400.31l.07-.06a.15.15,0,0,0,0-.16c0-.07-.88-2.12-1.89-2.43a.86.86,0,0,0-.78.12.67.67,0,0,0-.33.77c.21.82,1.94,1.72,2.83,1.78ZM173.06,398a.52.52,0,0,1,.42,0,4,4,0,0,1,1.54,1.93,3.6,3.6,0,0,1-2.21-1.47c-.06-.08,0-.24.18-.38Z" style="fill:#407BFF"></path><path d="M273.12,242.05a110.07,110.07,0,0,1,2.16,27.32,8,8,0,0,1-5.35,7.24c-10.69,3.67-38.38,5.06-47.34,3.93l3.63-3.83s38-7.42,37.09-10.39c0,0-1.8-19-3-21.78Z" style="fill:#ffc3bd"></path><path d="M227,276.79l-6.44-4.21-6.67,4.52s5.08,4.37,9.87,3.25Z" style="fill:#ffc3bd"></path><path d="M214.68,274.05l-3.51,2.71a.39.39,0,0,0,.2.69l4.14.39,5-5.26Z" style="fill:#ffc3bd"></path><path d="M244,236.94a5.81,5.81,0,0,1,4.32,7.09c-.34,1.36-11.19,26.72-11.72,27.57-3.58,8.76-9.92,8.18-18.59,8.48-6.88-.08-12,.5-18.74-1l1.65-3.6c4.75-.2,14.82-3.69,20.73-5.35a8,8,0,0,0,5.27-4.12c2.79-6,9.22-21.29,10.14-24.9a5.81,5.81,0,0,1,6.94-4.21Z" style="fill:#ffc3bd"></path><path d="M201.23,275.53l-5.52-2.42-4.63,5.38s7.41,2.36,8.7.1Z" style="fill:#ffc3bd"></path><path d="M189,277.63l-1.36,1.28a.48.48,0,0,0,.5.79l3-1.21,4.63-5.38-4.88,3.08A12.33,12.33,0,0,0,189,277.63Z" style="fill:#ffc3bd"></path><path d="M249.83,205.79l5.77,3.59,8.56,4.68a46.56,46.56,0,0,0,.53,6.47c.69,2.72,1.66,4.91,6.46,5.41,0,0,6.25,4.42-4.82,6.1s-14.36-3.3-14.36-3.3C255.61,224,252.12,211.84,249.83,205.79Z" style="fill:#ffc3bd"></path><path d="M269.82,194.11c.2.66.71,1.12,1.15,1s.64-.75.44-1.41-.72-1.11-1.16-1S269.62,193.45,269.82,194.11Z" style="fill:#263238"></path><path d="M266.78,192.6a.36.36,0,0,0,.29-.25,3.42,3.42,0,0,1,2.18-2.07.41.41,0,0,0-.18-.8h0a4.23,4.23,0,0,0-2.76,2.58.42.42,0,0,0,.23.53A.49.49,0,0,0,266.78,192.6Z" style="fill:#263238"></path><path d="M270.29,194.79a22.37,22.37,0,0,0,3.9,4.4,3.37,3.37,0,0,1-2.66,1.05Z" style="fill:#ed847e"></path><path d="M246.73,198.08c2.93,8,4.26,12.93,9.67,16a11.1,11.1,0,0,0,7.78,1.34,11.37,11.37,0,0,0,4.35-1.87h0a11.19,11.19,0,0,0,4.61-9.85C272.74,195.86,268,184,259,182.85a11.25,11.25,0,0,0-12.24,15.23Z" style="fill:#ffc3bd"></path><path d="M264.18,215.4a11.37,11.37,0,0,0,4.35-1.87c-.22.08-3,1.09-4.45.35Z" style="isolation:isolate;opacity:0.2"></path><path d="M242.86,204.75A61.87,61.87,0,0,0,253,216.32c2.82-.85,5.28-1.33,8.16-2,1.12-3.24,1.36-13.39,2.43-15.12s3.25-4,4.19-5.78a8,8,0,0,0-.6-7.91,10.86,10.86,0,0,0-6.83-4.37,15.55,15.55,0,0,0-13.43,3.68,8.46,8.46,0,0,0-3,5C240,192.45,238.86,198.68,242.86,204.75Z" style="fill:#263238"></path><path d="M243.47,185.71a9.93,9.93,0,0,0,.33,4.09,2.49,2.49,0,0,1-1.76-2.2C242,186.6,242.55,186.11,243.47,185.71Z" style="fill:#263238"></path><path d="M261,199.86a10,10,0,0,0,4.31,4.52c2.35,1.17,3.35-1,2.55-3.68-.74-2.38-2.81-5.88-5.14-5.92S259.82,197.39,261,199.86Z" style="fill:#ffc3bd"></path><path d="M283.78,228.44c-.75-2-4.49-4.37-8-4h-2.33a41.17,41.17,0,0,0-6.09.55,150,150,0,0,0-17,2.86c-2.58.68-5.07,1.54-7,2.28-2-.59-.19,16.86.19,38.31.18,10.19.46,20.26.72,27.2h42.66s-.58-12.89-.46-27.95C286.52,258.65,286.87,236.67,283.78,228.44Z" style="fill:#263238"></path><path d="M242.6,258.24c.32,3.83.65,7.85,1,11.87,4.41-14.44,7.23-28.94,7.23-28.94Z" style="isolation:isolate;opacity:0.2"></path><path d="M239.34,231.8c-5.49,4.36-10.92,25.7-10.92,25.7l13.08,6.94c4.48-5.83,11.54-18.73,11.59-23.81C253.23,232.82,246.33,227.07,239.34,231.8Z" style="fill:#263238"></path><path d="M228.85,411.33A4.35,4.35,0,1,1,224.5,407a4.34,4.34,0,0,1,4.35,4.35Z" style="fill:#263238"></path><path d="M293.74,411.33a4.35,4.35,0,1,0,4.35-4.35,4.35,4.35,0,0,0-4.35,4.35Z" style="fill:#263238"></path><path d="M257.06,409.94a4.35,4.35,0,1,0,4.35-4.35,4.35,4.35,0,0,0-4.35,4.35Z" style="fill:#263238"></path><path d="M303.87,404.49a2,2,0,0,1-2,1.7l-41.67-.62-39,1a2,2,0,0,1-2-1.7,2.12,2.12,0,0,1,1.53-2.48l21.31-4.51a33.7,33.7,0,0,1,6.7-.68h22.9a33.38,33.38,0,0,1,6.69.68l24,4.17A2.11,2.11,0,0,1,303.87,404.49Z" style="fill:#263238"></path><rect x="253.54" y="358.66" width="15.43" height="38.51" style="fill:#263238"></rect><rect x="255.76" y="340.74" width="11" height="17.91" style="fill:#407BFF"></rect><rect x="255.76" y="340.74" width="11" height="17.91" style="isolation:isolate;opacity:0.2"></rect><rect x="255.76" y="340.74" width="11" height="17.91" style="isolation:isolate;opacity:0.5"></rect><polygon points="255.76 346 266.76 348.77 266.76 340.74 255.76 340.74 255.76 346" style="isolation:isolate;opacity:0.5"></polygon><rect x="218.51" y="300.22" width="5.59" height="23.85" style="fill:#407BFF"></rect><rect x="218.51" y="300.22" width="5.59" height="23.85" style="isolation:isolate;opacity:0.5"></rect><path d="M252.13,340.74V243.82a13.61,13.61,0,0,1,4.65-10.25l7.39-6.47a13.63,13.63,0,0,1,9-3.37h13.59l13,13.88V340.74Z" style="fill:#407BFF"></path><path d="M212.38,320.68h60.9v20.06H202.46a7.21,7.21,0,0,1-6.2-10.87h0A18.72,18.72,0,0,1,212.38,320.68Z" style="fill:#407BFF"></path><path d="M299.78,237.62V340.75H202.46a7.21,7.21,0,0,1-6.2-10.87,18.71,18.71,0,0,1,16.09-9.19H243a9.11,9.11,0,0,0,9.11-9.11V243.82a13.58,13.58,0,0,1,4.65-10.24l7.39-6.47a13.58,13.58,0,0,1,9-3.37h13.59Z" style="fill:#fff;opacity:0.7000000000000001"></path><path d="M261,340.74V243.82a13.64,13.64,0,0,1,4.65-10.25l7.39-6.47a13.63,13.63,0,0,1,9-3.37h7.7a13.63,13.63,0,0,1,9.93,4.29l5.31,5.66a13.6,13.6,0,0,1,3.7,9.33v87.35a10.38,10.38,0,0,1-10.38,10.38Z" style="fill:#407BFF"></path><path d="M261,340.74V243.82a13.64,13.64,0,0,1,4.65-10.25l7.39-6.47a13.63,13.63,0,0,1,9-3.37h7.7a13.63,13.63,0,0,1,9.93,4.29l5.31,5.66a13.6,13.6,0,0,1,3.7,9.33v87.35a10.38,10.38,0,0,1-10.38,10.38Z" style="fill:#fff;opacity:0.5"></path><path d="M240.29,307.3a57.71,57.71,0,0,0-38,0,5.39,5.39,0,0,1-6.69-2.55h0c-1.14-2.41.39-5.53,3.49-6.62a67.27,67.27,0,0,1,44.38,0c3.1,1.08,4.63,4.21,3.49,6.62h0A5.4,5.4,0,0,1,240.29,307.3Z" style="fill:#407BFF"></path><path d="M240.29,307.3a57.71,57.71,0,0,0-38,0,5.39,5.39,0,0,1-6.69-2.55h0c-1.14-2.41.39-5.53,3.49-6.62a67.27,67.27,0,0,1,44.38,0c3.1,1.08,4.63,4.21,3.49,6.62h0A5.4,5.4,0,0,1,240.29,307.3Z" style="fill:#fff;opacity:0.7000000000000001"></path></g></svg>